<?xml version="1.0" encoding="UTF-8" standalone="no" ?>
<!DOCTYPE svg PUBLIC "-//W3C//DTD SVG 1.1//EN" "http://www.w3.org/Graphics/SVG/1.1/DTD/svg11.dtd">
<svg xmlns="http://www.w3.org/2000/svg" xmlns:xlink="http://www.w3.org/1999/xlink" version="1.1" width="500" height="500" viewBox="0 0 1024 1024" xml:space="preserve">
<desc>Created with Fabric.js 5.3.0</desc>
<defs>
</defs>
<g transform="matrix(1 0 0 1 557.33676973 433.4890166658)" id="64RKR5c1sxdwK4wSFupjD"  >
<g style="" vector-effect="non-scaling-stroke"   >
		<g transform="matrix(1 0 0 1 -18.8825178463 123.152533388)" id="19S6aLcLI0l5ZjR57WnTn"  >
<g style="" vector-effect="non-scaling-stroke"   >
		<g transform="matrix(3.1850012062 0 0 2.04 0 3.3067814855)" id="3LyG_LSgO1otzj_rb7FKL"  >
<path style="stroke: rgb(8,224,23); stroke-width: 0; stroke-dasharray: none; stroke-linecap: butt; stroke-dashoffset: 0; stroke-linejoin: miter; stroke-miterlimit: 4; fill: rgb(0,0,0); fill-rule: nonzero; opacity: 1;" vector-effect="non-scaling-stroke"  transform=" translate(0, 0)" d="M 0 -55.11302 C 30.42239 -55.11302 55.11302 -30.42238 55.11302 0 C 55.11302 30.42239 30.42238 55.11302 0 55.11302 C -30.42239 55.11302 -55.11302 30.42238 -55.11302 0 C -55.11302 -30.42239 -30.42238 -55.11302 0 -55.11302 z" stroke-linecap="round" />
</g>
		<g transform="matrix(3.1850012062 0 0 1 0 -60.6243272336)" id="I3mdSl3NM4Shi_kXFnpxz"  >
<path style="stroke: rgb(211,229,159); stroke-width: 0; stroke-dasharray: none; stroke-linecap: butt; stroke-dashoffset: 0; stroke-linejoin: miter; stroke-miterlimit: 4; fill: rgb(0,0,0); fill-rule: nonzero; opacity: 1;" vector-effect="non-scaling-stroke"  transform=" translate(0, 0)" d="M -55.11302 -55.11302 L 55.11303 -55.11302 L 55.11303 55.11303 L -55.11302 55.11303 z" stroke-linecap="round" />
</g>
</g>
</g>
		<g transform="matrix(0.641278686 0 0.5641847509 0.6995450021 188.041318865 45.9947987271)" id="WElMpiMg3JfMBGiC31Ueq"  >
<path style="stroke: rgb(28,12,35); stroke-width: 0; stroke-dasharray: none; stroke-linecap: butt; stroke-dashoffset: 0; stroke-linejoin: miter; stroke-miterlimit: 4; fill: rgb(0,0,0); fill-rule: nonzero; opacity: 1;" vector-effect="non-scaling-stroke"  transform=" translate(0, 0)" d="M 0 -55.11305 C 30.4224 -55.11305 55.11305 -30.4224 55.11305 0 C 55.11305 30.4224 30.4224 55.11305 0 55.11305 C -30.4224 55.11305 -55.11305 30.4224 -55.11305 0 C -55.11305 -30.4224 -30.4224 -55.11305 0 -55.11305 z" stroke-linecap="round" />
</g>
		<g transform="matrix(0.4300045361 0 0 0.9950002224 224.1656713356 117.3656534096)" id="ugvpoYEkuc2X7xcycXbSa"  >
<path style="stroke: rgb(58,46,23); stroke-width: 0; stroke-dasharray: none; stroke-linecap: butt; stroke-dashoffset: 0; stroke-linejoin: miter; stroke-miterlimit: 4; fill: rgb(0,0,0); fill-rule: nonzero; opacity: 1;" vector-effect="non-scaling-stroke"  transform=" translate(0, 0)" d="M 0 -55.11302 C 30.42239 -55.11302 55.11302 -30.42238 55.11302 0 C 55.11302 30.42239 30.42238 55.11302 0 55.11302 C -30.42239 55.11302 -55.11302 30.42238 -55.11302 0 C -55.11302 -30.42239 -30.42238 -55.11302 0 -55.11302 z" stroke-linecap="round" />
</g>
		<g transform="matrix(1.3445361328 -0.3550000011 0 0.4750000011 166.8354478409 172.2031252987)" id="e6hNhJ-kOdV0btpeg_N4C"  >
<path style="stroke: rgb(117,92,11); stroke-width: 0; stroke-dasharray: none; stroke-linecap: butt; stroke-dashoffset: 0; stroke-linejoin: miter; stroke-miterlimit: 4; fill: rgb(0,0,0); fill-rule: nonzero; opacity: 1;" vector-effect="non-scaling-stroke"  transform=" translate(0, 0)" d="M 0 -55.11302 C 30.42239 -55.11302 55.11302 -30.42238 55.11302 0 C 55.11302 30.42239 30.42238 55.11302 0 55.11302 C -30.42239 55.11302 -55.11302 30.42238 -55.11302 0 C -55.11302 -30.42239 -30.42238 -55.11302 0 -55.11302 z" stroke-linecap="round" />
</g>
		<g transform="matrix(0.3168239124 0 0 0.3168239124 217.9279448156 79.9893056463)" id="o3vCkayKyN6PgAooHlNUj"  >
<path style="stroke: rgb(249,201,93); stroke-width: 0; stroke-dasharray: none; stroke-linecap: butt; stroke-dashoffset: 0; stroke-linejoin: miter; stroke-miterlimit: 4; fill: rgb(0,0,0); fill-rule: nonzero; opacity: 1;" vector-effect="non-scaling-stroke"  transform=" translate(0, 0)" d="M -55.11302 -31.73055 C -55.11302 -44.64433 -44.64433 -55.11303 -31.730539999999998 -55.11303 L 31.730560000000004 -55.11303 L 31.730560000000004 -55.11303 C 44.64434 -55.11303 55.113040000000005 -44.64434 55.113040000000005 -31.73055 L 55.113040000000005 31.73055 L 55.113040000000005 31.73055 C 55.113040000000005 44.64433 44.64435 55.11303 31.730560000000004 55.11303 L -31.730539999999998 55.11303 L -31.730539999999998 55.11303 C -44.64431999999999 55.11303 -55.11302 44.64434 -55.11302 31.73055 z" stroke-linecap="round" />
</g>
		<g transform="matrix(0.3804442617 0 0 0.3804442617 220.1159713589 143.1362913302)" id="Ar0S_nFowss0hJPs3RED4"  >
<path style="stroke: rgb(38,73,241); stroke-width: 0; stroke-dasharray: none; stroke-linecap: butt; stroke-dashoffset: 0; stroke-linejoin: miter; stroke-miterlimit: 4; fill: rgb(0,0,0); fill-rule: nonzero; opacity: 1;" vector-effect="non-scaling-stroke"  transform=" translate(0, 0)" d="M -55.11302 -31.73055 C -55.11302 -44.64433 -44.64433 -55.11303 -31.730539999999998 -55.11303 L 31.730560000000004 -55.11303 L 31.730560000000004 -55.11303 C 44.64434 -55.11303 55.113040000000005 -44.64434 55.113040000000005 -31.73055 L 55.113040000000005 31.73055 L 55.113040000000005 31.73055 C 55.113040000000005 44.64433 44.64435 55.11303 31.730560000000004 55.11303 L -31.730539999999998 55.11303 L -31.730539999999998 55.11303 C -44.64431999999999 55.11303 -55.11302 44.64434 -55.11302 31.73055 z" stroke-linecap="round" />
</g>
		<g transform="matrix(4.4945343283 0 0 0.4200000258 -6.770591968 241.0944181916)" id="hnaaRBgCbUyv6Q7aOq4OJ"  >
<path style="stroke: rgb(132,47,14); stroke-width: 0; stroke-dasharray: none; stroke-linecap: butt; stroke-dashoffset: 0; stroke-linejoin: miter; stroke-miterlimit: 4; fill: rgb(0,0,0); fill-rule: nonzero; opacity: 1;" vector-effect="non-scaling-stroke"  transform=" translate(0, 0)" d="M -55.11305 -55.11305 L 55.11305 -55.11305 L 55.11305 55.11305 L -55.11305 55.11305 z" stroke-linecap="round" />
</g>
		<g transform="matrix(1 0 0 1 -84.4670173081 -139.1854644591)" id="CnxL-n1uBpbE-DfLb3p1P"  >
<path style="stroke: rgb(0,0,0); stroke-width: 1; stroke-dasharray: none; stroke-linecap: round; stroke-dashoffset: 0; stroke-linejoin: round; stroke-miterlimit: 10; fill: none; fill-rule: nonzero; opacity: 1;" vector-effect="non-scaling-stroke"  transform=" translate(-478.3810548977, -303.1216361679)" d="M 485.546748116254 427.67807212055965 Q 485.545748116254 427.67707212055967 484.4434876210979 427.1259418729816 Q 483.3412271259418 426.5748116254036 482.7900968783638 426.0236813778256 Q 482.23896663078574 425.47255113024755 482.23896663078574 424.37029063509146 Q 482.23896663078574 423.2680301399354 481.6878363832077 422.1657696447793 Q 481.13670613562965 421.0635091496232 480.5855758880516 419.9612486544671 Q 480.03444564047356 418.858988159311 479.4833153928955 418.858988159311 Q 478.9321851453175 418.858988159311 477.8299246501614 417.2055974165769 Q 476.7276641550053 415.5522066738428 476.7276641550053 415.0010764262648 Q 476.7276641550053 414.44994617868673 476.17653390742726 412.7965554359526 Q 475.6254036598492 411.14316469321847 474.5231431646932 410.5920344456404 Q 473.42088266953715 410.0409041980624 473.42088266953715 409.48977395048433 Q 473.42088266953715 408.9386437029063 472.8697524219591 408.38751345532825 Q 472.31862217438106 407.8363832077502 472.31862217438106 407.28525296017216 Q 472.31862217438106 406.7341227125941 471.216361679225 405.08073196986004 Q 470.1141011840689 403.4273412271259 469.56297093649084 402.87621097954786 Q 469.0118406889128 402.3250807319698 469.0118406889128 401.7739504843918 Q 469.0118406889128 401.22282023681373 468.46071044133475 400.12055974165764 Q 467.9095801937567 399.01829924650156 467.9095801937567 397.91603875134547 Q 467.9095801937567 396.8137782561894 466.8073196986006 395.7115177610333 Q 465.70505920344453 394.60925726587726 465.70505920344453 392.95586652314313 Q 465.70505920344453 391.302475780409 465.1539289558665 390.75134553283095 Q 464.60279870828845 390.2002152852529 464.0516684607104 389.0979547900968 Q 463.50053821313236 387.99569429494073 462.9494079655543 386.34230355220666 Q 462.39827771797627 384.6889128094725 461.8471474703982 383.58665231431644 Q 461.2960172228202 382.48439181916035 461.2960172228202 381.38213132400426 Q 461.2960172228202 380.2798708288482 461.2960172228202 379.1776103336921 Q 461.2960172228202 378.075349838536 460.1937567276641 376.42195909580187 Q 459.091496232508 374.7685683530678 459.091496232508 373.6663078579117 Q 459.091496232508 372.5640473627556 459.091496232508 370.9106566200215 Q 459.091496232508 369.25726587728735 459.091496232508 368.7061356297093 Q 459.091496232508 368.15500538213126 459.091496232508 365.95048439181915 Q 459.091496232508 363.74596340150697 459.091496232508 362.09257265877284 Q 459.091496232508 360.4391819160387 459.091496232508 358.7857911733046 Q 459.091496232508 357.13240043057044 459.091496232508 355.4790096878363 Q 459.091496232508 353.82561894510224 459.091496232508 353.2744886975242 Q 459.091496232508 352.72335844994615 459.64262648008605 350.51883745963397 Q 460.1937567276641 348.3143164693218 461.2960172228202 346.1097954790097 Q 462.39827771797627 343.9052744886975 462.9494079655543 342.25188374596337 Q 463.50053821313236 340.59849300322924 464.60279870828845 338.39397201291706 Q 465.70505920344453 336.1894510226049 466.2561894510226 335.0871905274488 Q 466.8073196986006 333.98493003229277 467.35844994617867 332.33153928955863 Q 467.9095801937567 330.6781485468245 468.46071044133475 329.02475780409037 Q 469.0118406889128 327.37136706135624 470.66523143164693 325.1668460710441 Q 472.31862217438106 322.96232508073194 472.8697524219591 321.3089343379978 Q 473.42088266953715 319.6555435952637 475.0742734122712 317.4510226049515 Q 476.7276641550053 315.2465016146394 478.38105489773943 312.49085037674917 Q 480.03444564047356 309.73519913885895 481.13670613562965 307.5306781485468 Q 482.23896663078574 305.32615715823465 483.89235737351987 302.0193756727664 Q 485.545748116254 298.7125941872981 487.19913885898814 294.30355220667377 Q 488.85252960172227 289.8945102260495 490.5059203444564 285.4854682454252 Q 492.15931108719053 281.07642626480083 492.7104413347686 277.76964477933257 Q 493.2615715823466 274.46286329386436 494.36383207750265 270.60495156081805 Q 495.4660925726587 266.74703982777174 496.0172228202367 262.33799784714745 Q 496.56835306781477 257.9289558665231 497.1194833153928 254.62217438105486 Q 497.67061356297086 251.31539289558663 497.67061356297086 245.25296017222817 Q 497.67061356297086 239.19052744886972 497.67061356297086 235.33261571582344 Q 497.67061356297086 231.47470398277716 497.67061356297086 226.5145317545748 Q 497.67061356297086 221.55435952637242 497.67061356297086 215.49192680301397 Q 497.67061356297086 209.4294940796555 497.67061356297086 204.46932185145315 Q 497.67061356297086 199.50914962325078 497.67061356297086 195.10010764262645 Q 497.67061356297086 190.69106566200213 497.67061356297086 187.3842841765339 Q 497.67061356297086 184.07750269106566 497.67061356297086 181.32185145317544 L 497.67061356297086 178.56520021528522" stroke-linecap="round" />
</g>
		<g transform="matrix(1 0 0 1 13.6336667608 -111.6294520802)" id="xssOCQl_nzjZyjpQIZrxH"  >
<path style="stroke: rgb(0,0,0); stroke-width: 1; stroke-dasharray: none; stroke-linecap: round; stroke-dashoffset: 0; stroke-linejoin: round; stroke-miterlimit: 10; fill: none; fill-rule: nonzero; opacity: 1;" vector-effect="non-scaling-stroke"  transform=" translate(-576.4817389666, -330.6776485468)" d="M 561.6007222820236 430.98385360602794 Q 561.6017222820236 430.98385360602794 562.1528525296017 430.98385360602794 Q 562.7039827771797 430.98385360602794 563.2551130247577 430.98385360602794 Q 563.8062432723358 430.98385360602794 563.8062432723358 430.4327233584499 Q 563.8062432723358 429.88159311087185 564.9085037674919 428.2282023681377 Q 566.010764262648 426.5748116254036 566.010764262648 425.47255113024755 Q 566.010764262648 424.37029063509146 566.561894510226 422.71689989235733 Q 567.113024757804 421.0635091496232 567.113024757804 419.41011840688907 Q 567.113024757804 417.75672766415494 567.113024757804 415.0010764262647 Q 567.113024757804 412.24542518837455 567.113024757804 410.5920344456404 Q 567.113024757804 408.9386437029063 567.113024757804 406.1829924650161 Q 567.113024757804 403.4273412271259 566.561894510226 401.22282023681373 Q 566.010764262648 399.01829924650156 566.010764262648 396.8137782561894 Q 566.010764262648 394.60925726587726 565.4596340150699 392.4047362755651 Q 564.9085037674919 390.2002152852529 563.8062432723358 387.44456404736275 Q 562.7039827771797 384.6889128094725 562.7039827771797 383.0355220667384 Q 562.7039827771797 381.38213132400426 562.1528525296017 377.52421959095796 Q 561.6017222820236 373.6663078579117 561.6017222820236 371.4617868675995 Q 561.6017222820236 369.25726587728735 561.6017222820236 366.5016146393972 Q 561.6017222820236 363.74596340150697 561.6017222820236 361.5414424111948 Q 561.6017222820236 359.3369214208826 561.6017222820236 356.5812701829924 Q 561.6017222820236 353.82561894510224 561.6017222820236 351.62109795479006 Q 561.6017222820236 349.4165769644779 561.6017222820236 347.76318622174375 Q 561.6017222820236 346.1097954790096 561.6017222820236 343.35414424111946 Q 561.6017222820236 340.59849300322924 561.6017222820236 339.49623250807315 Q 561.6017222820236 338.39397201291706 561.6017222820236 336.1894510226049 Q 561.6017222820236 333.98493003229277 562.1528525296017 333.4337997847147 Q 562.7039827771797 332.8826695371367 563.8062432723358 330.6781485468245 Q 564.9085037674919 328.4736275565123 566.561894510226 327.37136706135624 Q 568.2152852529601 326.26910656620015 569.3175457481162 324.06458557588803 Q 570.4198062432723 321.86006458557586 572.0731969860065 319.6555435952637 Q 573.7265877287406 317.4510226049515 574.8288482238966 315.2465016146393 Q 575.9311087190526 313.0419806243272 577.5844994617868 309.73519913885895 Q 579.2378902045209 306.4284176533907 580.891280947255 303.6727664155005 Q 582.5446716899892 300.9171151776103 584.1980624327233 296.50807319698595 Q 585.8514531754574 292.09903121636165 586.9537136706135 288.2411194833154 Q 588.0559741657696 284.3832077502691 589.1582346609257 279.97416576964474 Q 590.2604951560818 275.5651237890204 590.8116254036598 272.2583423035521 Q 591.3627556512379 268.9515608180839 591.3627556512379 265.6447793326157 Q 591.3627556512379 262.33799784714745 591.3627556512379 257.9289558665231 Q 591.3627556512379 253.5199138858988 591.3627556512379 250.76426264800858 Q 591.3627556512379 248.00861141011836 590.8116254036598 245.25296017222817 Q 590.2604951560818 242.49730893433798 589.1582346609257 240.84391819160385 Q 588.0559741657696 239.19052744886972 587.5048439181916 237.53713670613558 Q 586.9537136706135 235.88374596340145 585.8514531754574 233.12809472551126 L 584.7481926803014 230.37144348762106" stroke-linecap="round" />
</g>
		<g transform="matrix(1 0 0 1 101.2638761257 -130.3673804979)" id="DwNsC9o1upzA4E3-QvKZm"  >
<path style="stroke: rgb(0,0,0); stroke-width: 1; stroke-dasharray: none; stroke-linecap: round; stroke-dashoffset: 0; stroke-linejoin: round; stroke-miterlimit: 10; fill: none; fill-rule: nonzero; opacity: 1;" vector-effect="non-scaling-stroke"  transform=" translate(-664.1119483315, -311.9397201292)" d="M 636.5544359526372 422.16676964477927 Q 636.5554359526371 422.1657696447793 637.1065662002152 422.1657696447793 Q 637.6576964477932 422.1657696447793 638.2088266953713 421.61463939720124 Q 638.7599569429493 421.0635091496232 639.3110871905274 420.51237890204516 Q 639.8622174381054 419.9612486544671 640.4133476856834 417.75672766415494 Q 640.9644779332615 415.5522066738428 642.0667384284176 413.34768568353064 Q 643.1689989235737 411.14316469321847 644.8223896663078 407.83638320775026 Q 646.4757804090419 404.529601722282 648.6803013993541 400.6716899892357 Q 650.8848223896663 396.8137782561894 651.9870828848224 393.5069967707211 Q 653.0893433799785 390.2002152852529 654.1916038751344 386.8934337997847 Q 655.2938643702905 383.58665231431644 656.3961248654466 380.8310010764262 Q 657.4983853606027 378.075349838536 658.6006458557588 374.76856835306774 Q 659.7029063509149 371.4617868675995 659.7029063509149 369.25726587728735 Q 659.7029063509149 367.0527448869752 660.2540365984929 362.09257265877284 Q 660.805166846071 357.13240043057044 660.805166846071 352.7233584499461 Q 660.805166846071 348.3143164693218 660.805166846071 342.25188374596337 Q 660.805166846071 336.1894510226049 660.2540365984929 328.4736275565123 Q 659.7029063509149 320.75780409041977 658.6006458557588 313.5931108719052 Q 657.4983853606027 306.4284176533907 656.3961248654466 300.36598493003225 Q 655.2938643702905 294.3035522066738 654.1916038751344 289.3433799784715 Q 653.0893433799785 284.3832077502691 651.9870828848224 279.97416576964474 Q 650.8848223896663 275.5651237890204 650.3336921420882 272.2583423035521 Q 649.7825618945102 268.9515608180839 649.2314316469322 266.19590958019376 Q 648.6803013993541 263.44025834230354 647.578040904198 261.23573735199136 Q 646.4757804090419 259.0312163616792 645.9246501614639 256.27556512378897 Q 645.3735199138858 253.5199138858988 644.2712594187298 249.6620021528525 Q 643.1689989235737 245.8040904198062 643.1689989235737 243.048439181916 Q 643.1689989235737 240.2927879440258 642.6178686759956 237.5371367061356 Q 642.0667384284176 234.78148546824542 642.0667384284176 232.0258342303552 Q 642.0667384284176 229.27018299246498 643.1689989235737 227.61679224973088 Q 644.2712594187298 225.96340150699677 646.4757804090419 223.7588805166846 Q 648.6803013993541 221.55435952637242 651.9870828848223 219.9009687836383 Q 655.2938643702905 218.24757804090416 659.7029063509149 215.49192680301397 Q 664.1119483315392 212.73627556512378 669.0721205597416 210.5317545748116 Q 674.032292787944 208.32723358449942 678.4413347685684 206.12271259418728 Q 682.8503767491926 203.91819160387513 687.259418729817 202.81593110871904 L 691.6694607104413 201.71267061356295" stroke-linecap="round" />
</g>
</g>
</g>
</svg>